<svg xmlns="http://www.w3.org/2000/svg" height="40px" viewBox="0 -960 960 960" width="40px" fill="#83889C"><path d="M227.04-264.95q58.84-41.85 120.85-64.7 62.02-22.85 132.14-22.85 70.13 0 132.71 23.09 62.58 23.09 120.89 64.54 40.44-49.91 58.88-102.74 18.43-52.84 18.43-112.39 0-139.76-95.58-235.35t-235.33-95.59q-139.75 0-235.36 95.59-95.61 95.59-95.61 235.35 0 59.46 18.65 112.26 18.65 52.79 59.33 102.79Zm153.59-220.08q-40.22-40.19-40.22-99.24t40.22-99.36q40.21-40.31 99.37-40.31 59.16 0 99.37 40.31 40.22 40.31 40.22 99.36t-40.22 99.24q-40.21 40.2-99.37 40.2-59.16 0-99.37-40.2ZM479.92-73.3q-83.61 0-157.79-31.99-74.17-31.98-129.51-87.32-55.34-55.33-87.33-129.51Q73.3-396.29 73.3-480q0-84.2 32.02-158.14 32.02-73.94 87.31-129.23 55.29-55.29 129.47-87.39t157.9-32.1q84.2 0 158.14 32.1 73.94 32.1 129.23 87.39 55.29 55.29 87.39 129.23t32.1 158.22q0 83.61-32.1 157.8-32.1 74.2-87.39 129.49-55.29 55.29-129.23 87.31T479.92-73.3Zm102.93-91.07q49.39-15.32 96.39-50.85-47.32-33.27-96.69-50.47-49.36-17.19-102.55-17.19t-102.43 17.19q-49.25 17.2-96.57 50.47 47 35.53 96.27 50.85 49.27 15.31 102.73 15.31t102.85-15.31Zm-52.72-369.76q19.61-19.52 19.61-50.14 0-30.61-19.61-50.26-19.61-19.64-50.13-19.64-30.52 0-50.13 19.64-19.61 19.65-19.61 50.26 0 30.62 19.61 50.14T480-514.61q30.52 0 50.13-19.52ZM480-584.35Zm.24 368.46Z"/></svg>